<svg width="363" height="362" fill="none" xmlns="http://www.w3.org/2000/svg"><path d="m209.795 62.646 110.878-20.701-20.701 110.878-.326 1.748.85 1.561 53.951 99.055-111.848 14.575-1.763.23-1.222 1.291-77.535 81.92-48.425-101.87-.763-1.606-1.606-.763-101.87-48.425 81.92-77.534 1.291-1.223.23-1.763L107.43 8.171l99.055 53.951 1.561.85 1.748-.326Z" fill="#6CB46C" stroke="#000" stroke-width="10"/><path d="M122.552 194c-1.1 0-2.035-.385-2.805-1.155s-1.155-1.705-1.155-2.805v-30.635c0-1.063.385-1.98 1.155-2.75s1.705-1.155 2.805-1.155h12.485c1.1 0 2.035.385 2.805 1.155s1.155 1.687 1.155 2.75v8.58l-5.115-1.155v-4.29c0-.55-.202-1.008-.605-1.375a1.783 1.783 0 0 0-1.375-.605h-6.215c-.55 0-1.027.202-1.43.605-.367.367-.55.825-.55 1.375v24.365c0 .55.183 1.027.55 1.43.403.367.88.55 1.43.55h6.215c.55 0 1.008-.183 1.375-.55.403-.403.605-.88.605-1.43v-5.335h-5.06l1.155-5.115h9.02v13.585c0 1.1-.385 2.035-1.155 2.805S136.137 194 135.037 194h-12.485Zm28.826 0c-1.1 0-2.053-.385-2.86-1.155-.77-.77-1.155-1.723-1.155-2.86v-8.305c0-1.1.385-2.035 1.155-2.805.807-.807 1.76-1.21 2.86-1.21h4.29c.587 0 1.063-.183 1.43-.55.403-.403.605-.88.605-1.43v-2.035c0-.55-.202-1.008-.605-1.375-.367-.403-.843-.605-1.43-.605h-5.94l1.155-5.17h7.975c1.1 0 2.035.403 2.805 1.21.807.77 1.21 1.705 1.21 2.805V194h-11.495Zm3.135-5.17h3.19v-5.995h-3.19c-.55 0-1.027.202-1.43.605-.367.367-.55.825-.55 1.375v2.035c0 .55.183 1.027.55 1.43.403.367.88.55 1.43.55Zm14.095 5.17v-27.5h11.495c1.063 0 1.998.385 2.805 1.155.806.77 1.21 1.705 1.21 2.805V194h-5.17v-20.35c0-.587-.202-1.063-.605-1.43-.404-.367-.862-.55-1.375-.55h-3.19V194h-5.17Zm25.223 0c-1.1 0-2.053-.385-2.86-1.155-.77-.77-1.155-1.723-1.155-2.86v-8.305c0-1.1.385-2.035 1.155-2.805.807-.807 1.76-1.21 2.86-1.21h4.29c.587 0 1.064-.183 1.43-.55.404-.403.605-.88.605-1.43v-2.035a1.78 1.78 0 0 0-.605-1.375c-.366-.403-.843-.605-1.43-.605h-5.94l1.155-5.17h7.975c1.1 0 2.035.403 2.805 1.21.807.77 1.21 1.705 1.21 2.805V194h-11.495Zm3.135-5.17h3.19v-5.995h-3.19c-.55 0-1.026.202-1.43.605-.366.367-.55.825-.55 1.375v2.035c0 .55.184 1.027.55 1.43.404.367.88.55 1.43.55Zm18.413 5.17c-1.1 0-2.035-.385-2.805-1.155-.77-.807-1.155-1.76-1.155-2.86v-4.565h5.115v1.43c0 .55.201 1.027.605 1.43.403.367.88.55 1.43.55h1.155c.55 0 1.008-.183 1.375-.55.403-.403.605-.88.605-1.43v-2.035c0-.55-.202-1.008-.605-1.375a1.783 1.783 0 0 0-1.375-.605h-4.345c-1.1 0-2.035-.385-2.805-1.155-.77-.807-1.155-1.76-1.155-2.86v-8.305c0-1.1.385-2.035 1.155-2.805.77-.807 1.705-1.21 2.805-1.21h7.535c1.1 0 2.035.403 2.805 1.21.77.77 1.155 1.705 1.155 2.805v4.565h-5.17v-1.43c0-.55-.202-1.008-.605-1.375a1.783 1.783 0 0 0-1.375-.605h-1.155c-.55 0-1.027.202-1.43.605a1.78 1.78 0 0 0-.605 1.375v2.035c0 .55.201 1.027.605 1.43.403.367.88.55 1.43.55h4.345c1.1 0 2.035.403 2.805 1.21.77.77 1.155 1.705 1.155 2.805v8.525c-.037 1.027-.44 1.925-1.21 2.695a3.852 3.852 0 0 1-2.75 1.1h-7.535Zm17.589 0v-40.04l5.17-1.155V166.5h6.545l-1.21 5.17h-5.335V194h-5.17Zm20.139 0c-1.1 0-2.054-.385-2.86-1.155-.77-.807-1.155-1.76-1.155-2.86V170.46c0-1.1.385-2.035 1.155-2.805.806-.77 1.76-1.155 2.86-1.155h7.48c1.136 0 2.09.385 2.86 1.155s1.155 1.705 1.155 2.805v8.36c0 1.1-.385 2.053-1.155 2.86-.77.77-1.724 1.155-2.86 1.155h-6.325v4.015c0 .55.183 1.027.55 1.43.403.367.898.55 1.485.55h7.15l1.155 5.17h-11.495Zm1.155-16.335h3.19c.55 0 1.008-.183 1.375-.55.403-.403.605-.88.605-1.43v-2.035c0-.55-.202-1.008-.605-1.375a1.783 1.783 0 0 0-1.375-.605h-1.155a2.02 2.02 0 0 0-1.485.605c-.367.367-.55.825-.55 1.375v4.015Z" fill="#fff"/></svg>